<svg xmlns="http://www.w3.org/2000/svg" viewBox="0 0 50 50"><path d="M50 9.5c-1.8.8-3.8 1.4-5.9 1.6 2.1-1.3 3.7-3.3 4.5-5.7-2 1.2-4.2 2-6.5 2.5-2-2.1-4.9-3.4-8-3.2-4.7.2-8.7 3.8-9.5 8.4-.2 1.4-.2 2.8.1 4.1-8.6-.4-16.2-4.4-21.2-10.6-.9 1.5-1.4 3.3-1.4 5.2 0 3.6 1.8 6.7 4.6 8.5C5 20.2 3.4 19.7 2 19v.1c0 5 3.5 9.1 8.2 10.1-.9.2-1.8.4-2.7.4-.7 0-1.3-.1-1.9-.2 1.3 4.1 5.1 7 9.6 7.1-3.5 2.8-7.9 4.4-12.7 4.4-.8 0-1.6 0-2.4-.1 4.5 2.9 9.9 4.6 15.7 4.6C34.7 45.4 45 29.8 45 16.2v-.3c0-.6.3-1.2.8-1.7 1.6-1.4 3-2.9 4.2-4.7z"/></svg>