<svg xmlns="http://www.w3.org/2000/svg" width="32.083" height="27.541" viewBox="0 0 32.083 27.541">
    <defs>
        <linearGradient id="y9xcto01ra" x1=".129" y1=".47" x2=".988" y2=".47" gradientUnits="objectBoundingBox">
            <stop offset=".003" stop-color="#fd0a54"/>
            <stop offset="1" stop-color="#b70659"/>
        </linearGradient>
    </defs>
    <path data-name="Path 2010" d="m170.649 74.227 1.511 1.511.388.39-.388.388-1.511 1.553a.106.106 0 0 0 .043.173l1.64.907v2.979a.437.437 0 0 0 .173.3l5.224 2.892c.044.043.086.043.173.043h.173a.264.264 0 0 0 .173-.043l5.222-2.892a.364.364 0 0 0 .173-.3v-2.979l1.641-.907c.043-.043.086-.129.043-.173l-1.9-1.9 1.9-1.9a.106.106 0 0 0-.043-.173l-5.224-2.935c-.043-.044-.086 0-.129 0l-.949.95-.907.906a.106.106 0 0 0 .043.173l5.137 2.85.173.086-.173.085-5.093 2.85h-.346l-5.093-2.85-.173-.085.173-.086 5.137-2.85c.043-.043.085-.129.043-.173l-.907-.906-.95-.95a.08.08 0 0 0-.129 0l-5.226 2.939c-.086 0-.086.085-.042.127zm7.551 5.483 1.555 1.553a.321.321 0 0 0 .388.044l2.979-1.684V82l-4.964 2.763V79.71zm-5.4-.044 2.978 1.684a.322.322 0 0 0 .39-.043l1.553-1.555V84.8l-4.92-2.762zm5.18-15.41a13.563 13.563 0 0 1 8.331 2.806 13.976 13.976 0 0 1 4.7 6.431.694.694 0 0 1-.431.864.684.684 0 0 1-.82-.432 12.683 12.683 0 0 0-4.23-5.741 12.423 12.423 0 0 0-19.124 5.482h2.59a.336.336 0 0 1 .259.519l-3.411 4.273a.282.282 0 0 1-.475 0l-3.355-4.358a.323.323 0 0 1 .259-.519h2.677a13.739 13.739 0 0 1 13.036-9.324zm12.605 13.338 3.367 4.36a.322.322 0 0 1-.259.517h-2.677a13.774 13.774 0 0 1-21.368 6.519 13.98 13.98 0 0 1-4.7-6.432.693.693 0 0 1 .431-.863.684.684 0 0 1 .82.432 12.68 12.68 0 0 0 4.23 5.741 12.422 12.422 0 0 0 19.124-5.483h-2.59a.335.335 0 0 1-.259-.517l3.411-4.274a.282.282 0 0 1 .477 0z" transform="translate(-161.945 -64.256)" style="fill-rule:evenodd;fill:url(#y9xcto01ra)"/>
</svg>
