<svg data-name="Group 3240" xmlns="http://www.w3.org/2000/svg" width="25.778" height="27.534" viewBox="0 0 25.778 27.534">
    <defs>
        <linearGradient id="x3oy0r9gea" x1="-.241" x2=".752" y2="1.155" gradientUnits="objectBoundingBox">
            <stop offset=".004" stop-color="#aad5ff"/>
            <stop offset="1" stop-color="#2a73ff"/>
        </linearGradient>
        <linearGradient id="qu5kqc8fhb" x2=".805" y2=".822" gradientUnits="objectBoundingBox">
            <stop offset="0" stop-color="#aad5ff"/>
            <stop offset="1" stop-color="#2a73ff"/>
        </linearGradient>
    </defs>
    <path data-name="Path 1998" d="M79.769 87.973c-5.749 6.109-13.608-2.246-13.608-2.246s-8.4-7.86-2.246-13.609a1.942 1.942 0 0 1 2.65-.045l.224.224a5.145 5.145 0 0 1 1.752 2.7 2.84 2.84 0 0 1-.179 1.617 7.81 7.81 0 0 1-1.483 1.707c-.628.808-.135 1.932.359 2.65a14.8 14.8 0 0 0 3.279 3.413c.808.584 2.111 1.393 3.054.629.628-.494.987-1.124 1.751-1.483a2.508 2.508 0 0 1 1.618-.179 5.432 5.432 0 0 1 2.694 1.749l.225.225a1.992 1.992 0 0 1-.09 2.648z" transform="translate(-61.661 -62.673)" style="fill:url(#x3oy0r9gea)"/>
    <path data-name="Path 1999" d="M85.372 69.845a8.245 8.245 0 0 0-4.626-4.945H80.7a8.141 8.141 0 0 0-9.656 2.56 8.493 8.493 0 0 0-1.214 7.86 8 8 0 0 0 2.7 3.637c1.122.853 2.47 1.214 3.639 1.977a3.007 3.007 0 0 1 1.209 4.266c-.045.09.045.135.134.09a16.055 16.055 0 0 0 2.426-1.887 19.319 19.319 0 0 0 4.491-5.749 14.874 14.874 0 0 0 .988-2.47 9.817 9.817 0 0 0-.045-5.339zm-6.917 7.005v.674a.718.718 0 1 1-1.436 0v-.584a2.985 2.985 0 0 1-2.111-1.122.61.61 0 0 1 .134-.9l.449-.314a.56.56 0 0 1 .763.089 1.8 1.8 0 0 0 1.348.494c.808 0 1.348-.359 1.348-.808 0-.628-1.032-1.122-1.931-1.572-.988-.494-2.067-1.034-2.067-2.426A2.446 2.446 0 0 1 76.974 68v-.674a.718.718 0 0 1 1.436 0v.629a2.242 2.242 0 0 1 1.618.943.591.591 0 0 1-.135.853l-.359.269a.609.609 0 0 1-.763-.045 1.551 1.551 0 0 0-.943-.359c-.629 0-1.124.359-1.124.808 0 .494.674.674 1.662 1.169 1.438.673 2.336 1.391 2.336 2.739a2.521 2.521 0 0 1-2.247 2.518z" transform="translate(-59.988 -64.262)" style="fill-rule:evenodd;fill:url(#qu5kqc8fhb)"/>
</svg>
