<svg xmlns="http://www.w3.org/2000/svg" width="32.698" height="27.53" viewBox="0 0 32.698 27.53">
    <g data-name="Group 3258">
        <g data-name="Group 3256">
            <path data-name="Path 2017" d="M109.545 106.188H97.262a4.244 4.244 0 0 1-3.951-2.73l-4.244-11.227a1.714 1.714 0 0 1-.033-.086l-.784-2.078a1.11 1.11 0 0 0-1.038-.718H85.3a1.617 1.617 0 0 1-1.643-1.474 1.559 1.559 0 0 1 1.557-1.64h2a4.226 4.226 0 0 1 3.953 2.732 1.721 1.721 0 0 0 1.611 1.113H112a4.423 4.423 0 0 1 2.23.559 4.232 4.232 0 0 1 1.9 5.014l-2.58 7.659a4.221 4.221 0 0 1-4.005 2.876zm-16.3-11.714 2.978 7.882a1.111 1.111 0 0 0 1.038.717h12.283a1.106 1.106 0 0 0 1.051-.755l2.579-7.659a1.11 1.11 0 0 0-1.051-1.465H94.13a.947.947 0 0 0-.884 1.28z" style="fill:#ff6845" transform="translate(-83.652 -86.235)"/>
        </g>
        <g data-name="Group 3257" transform="translate(-83.652 -86.235)">
            <circle data-name="Ellipse 2231" cx="2.657" cy="2.657" r="2.657" transform="translate(95.974 108.452)" style="fill:#ff6845"/>
            <circle data-name="Ellipse 2232" cx="2.657" cy="2.657" r="2.657" transform="translate(105.938 108.452)" style="fill:#ff6845"/>
        </g>
    </g>
</svg>
