<svg xmlns="http://www.w3.org/2000/svg" width="29.08" height="27.53" viewBox="0 0 29.08 27.53">
    <g data-name="Group 3259" transform="translate(-281.55 -83.14)">
        <path data-name="Path 2018" d="M309.342 92.29h-1.39a.964.964 0 0 0-.916.654 8.463 8.463 0 0 1-7.256 5.721c-.239.017-.489.029-.739.029s-.5-.012-.739-.029a8.466 8.466 0 0 1-7.274-5.772.884.884 0 0 0-.845-.6h-.632a1.4 1.4 0 0 1-1.35-1.022l-.1-.339a3.648 3.648 0 0 0-3.512-2.658H282.6a1.037 1.037 0 0 0-1.04.84 1 1 0 0 0 .994 1.172h2.018a1.671 1.671 0 0 1 1.594 1.2l3.373 11.948a3.776 3.776 0 0 0 3.607 2.722h13.114a1.036 1.036 0 0 0 1.039-.841 1 1 0 0 0-.993-1.172h-13.17a1.729 1.729 0 0 1-1.663-1.256l-.378-1.332h16.467a1.3 1.3 0 0 0 1.245-.913l1.762-6.672a1.29 1.29 0 0 0-1.227-1.68z" style="fill:#ff6845"/>
        <circle data-name="Ellipse 2233" cx="1.733" cy="1.733" r="1.733" transform="translate(294.248 107.204)" style="fill:#ff6845"/>
        <circle data-name="Ellipse 2234" cx="1.733" cy="1.733" r="1.733" transform="translate(301.746 107.204)" style="fill:#ff6845"/>
        <path data-name="Path 2019" d="M299.041 97.379a7.14 7.14 0 0 0 6.974-5.688 6.76 6.76 0 0 0 .145-1.437 7.12 7.12 0 0 0-14.239 0 6.567 6.567 0 0 0 .146 1.425 7.13 7.13 0 0 0 6.974 5.7zm-4.008-8.015a.724.724 0 0 1 1.018 0l1.7 1.7a.384.384 0 0 0 .544 0l3.712-3.723a.724.724 0 0 1 1.018 0 .7.7 0 0 1 0 1.018l-4.134 4.141a1.235 1.235 0 0 1-1.748 0l-2.121-2.121a.727.727 0 0 1 .011-1.015z" style="fill:#ff6845"/>
    </g>
</svg>
