<svg xmlns="http://www.w3.org/2000/svg" width="27.541" height="27.541" viewBox="0 0 27.541 27.541">
    <defs>
        <linearGradient id="5j13hlw94a" x1=".175" y1=".06" x2=".823" y2=".933" gradientUnits="objectBoundingBox">
            <stop offset="0" stop-color="#ff8f9e"/>
            <stop offset="1" stop-color="#fe579f"/>
        </linearGradient>
    </defs>
    <path data-name="Path 2014" d="M255.105 72.3a13.795 13.795 0 1 0 1.233 5.725 13.782 13.782 0 0 0-1.233-5.725zm-17.028 2.418a3.954 3.954 0 0 1 3.306-3.849v-1.085a1.184 1.184 0 1 1 2.369 0v.987a3.955 3.955 0 0 1 2.616 1.53 1.022 1.022 0 0 1-.2 1.43l-.593.4a.913.913 0 0 1-1.233-.1 2.241 2.241 0 0 0-1.53-.543c-1.037 0-1.826.592-1.826 1.332 0 .84 1.086 1.136 2.665 1.876a4.988 4.988 0 0 0 .543.247 2.52 2.52 0 0 0 .346.149c1.826.986 2.912 2.122 2.912 4a4.089 4.089 0 0 1-3.652 4.046v1.086a1.184 1.184 0 1 1-2.369 0v-.987a5.232 5.232 0 0 1-3.456-1.776 1.025 1.025 0 0 1 .2-1.432l.74-.493a1.025 1.025 0 0 1 .543-.2.969.969 0 0 1 .69.3 3.067 3.067 0 0 0 2.222.789c1.333 0 2.222-.543 2.222-1.283 0-.987-1.58-1.776-3.012-2.517-.049 0-.1-.049-.147-.049a.151.151 0 0 1-.1-.05c-1.578-.697-3.255-1.585-3.255-3.807zm4.491 16.436a13.136 13.136 0 0 1-11.649-7.108l10.415-4.787c.937.493 2.615 1.283 2.615 1.875 0 .3-.642.642-1.579.642a2.388 2.388 0 0 1-1.777-.642 1.723 1.723 0 0 0-1.184-.493 1.38 1.38 0 0 0-.889.3l-.74.493a1.554 1.554 0 0 0-.69 1.136 1.59 1.59 0 0 0 .344 1.234 5.77 5.77 0 0 0 3.307 1.925v.444A1.822 1.822 0 0 0 242.568 88a1.854 1.854 0 0 0 1.826-1.826v-.543a4.658 4.658 0 0 0 3.653-4.541 4.568 4.568 0 0 0-2.172-3.9l8.933-4.1a12.669 12.669 0 0 1 .939 4.886 13.209 13.209 0 0 1-13.179 13.179z" transform="translate(-228.798 -64.256)" style="fill:url(#5j13hlw94a)"/>
</svg>
