<svg data-name="Group 3250" xmlns="http://www.w3.org/2000/svg" width="30.665" height="27.534" viewBox="0 0 30.665 27.534">
    <defs>
        <linearGradient id="vrxayifc4a" x1="-.088" y1="-.151" x2=".856" y2="1" gradientUnits="objectBoundingBox">
            <stop offset="0" stop-color="#74ff6d"/>
            <stop offset="1" stop-color="#00d999"/>
        </linearGradient>
    </defs>
    <path data-name="Path 2011" d="M215.8 89.723a2.073 2.073 0 1 1-4.146 0 2.043 2.043 0 0 1 2.073-2.073 2.076 2.076 0 0 1 2.073 2.073zm-10.737-2.073a2.076 2.076 0 0 0-2.073 2.073 2.046 2.046 0 1 0 2.073-2.073zm17.859-14.457-.054.213-2.02 10.576a2.773 2.773 0 0 1-2.657 2.233h-16.9a2.638 2.638 0 0 1-2.657-2.233l-2.073-10.524-.691-3.508-.478-2.5a1.588 1.588 0 0 0-1.541-1.276h-.584a.957.957 0 0 1 0-1.914h1.169a2.846 2.846 0 0 1 2.765 2.233l.425 2.127a1.541 1.541 0 0 0 1.541 1.222h21.049a2.857 2.857 0 0 1 2.703 3.35zm-7.122 4.836a5.112 5.112 0 0 0-.054-.9 6.027 6.027 0 0 0-6.006-5.155.584.584 0 0 0 0 1.169 4.844 4.844 0 0 1 4.838 4.306 2.215 2.215 0 0 1 .052.584 4.89 4.89 0 1 1-9.78 0 1.624 1.624 0 0 1 .054-.531 4.427 4.427 0 0 1 .744-2.021l1.01.638a.314.314 0 0 0 .478-.319l-.319-2.763c0-.213-.213-.319-.425-.265l-2.659.8a.333.333 0 0 0-.106.586l1.01.69a6.564 6.564 0 0 0-.9 2.392 4.654 4.654 0 0 0-.052.851 6.056 6.056 0 0 0 6.059 6.059 6.136 6.136 0 0 0 6.056-6.121z" transform="translate(-192.303 -64.262)" style="fill:url(#vrxayifc4a);fill-rule:evenodd"/>
    <g data-name="Group 3249">
        <path data-name="Path 2012" d="M208.665 78.264a.609.609 0 0 1-.352-.112l-2.276-1.617v-3.343a.609.609 0 1 1 1.217 0v2.715l1.764 1.253a.609.609 0 0 1-.353 1.105z" transform="translate(-189.318 -62.454)" style="fill:#fff"/>
    </g>
    <path data-name="Path 2013" d="m222.919 73.183-.054.213a20.645 20.645 0 0 1-7.175 3.774l-1.116.319c-.532.106-1.116.212-1.648.319a21.622 21.622 0 0 1-3.242.265h-.532a22.75 22.75 0 0 1-4.306-.532l-1.116-.319a21.977 21.977 0 0 1-7.175-3.72l-.691-3.508-.478-2.5a1.588 1.588 0 0 0-1.541-1.276h-.584a.957.957 0 0 1 0-1.914h1.169a2.846 2.846 0 0 1 2.765 2.233l.425 2.125a1.541 1.541 0 0 0 1.541 1.223h21.049a2.788 2.788 0 0 1 2.709 3.298z" transform="translate(-192.303 -64.252)" style="opacity:.19;isolation:isolate;fill:#fff;fill-rule:evenodd"/>
</svg>
