<svg xmlns="http://www.w3.org/2000/svg" xmlns:xlink="http://www.w3.org/1999/xlink" width="116.098" height="117.497" viewBox="0 0 116.098 117.497">
  <defs>
    <linearGradient id="linear-gradient" x1="22.349" y1="11.055" x2="22.341" y2="11.064" gradientUnits="objectBoundingBox">
      <stop offset="0" stop-color="#ff5845"/>
      <stop offset="1" stop-color="#ff6845"/>
    </linearGradient>
  </defs>
  <g id="Group_3285" data-name="Group 3285" transform="translate(-902.214 -136.815)">
    <g id="Group_3229" data-name="Group 3229" transform="translate(24.214 -161.786)">
      <g id="Group_3222" data-name="Group 3222" transform="translate(878 300)">
        <path id="Path_1975" data-name="Path 1975" d="M-1066.882,92.626c0,7.3-9.6,12.633-12.228,18.978-2.728,6.577.183,17.112-4.775,22.069s-15.491,2.046-22.068,4.774c-6.345,2.631-11.681,12.228-18.978,12.228s-12.633-9.6-18.977-12.228c-6.578-2.727-17.113.183-22.07-4.774s-2.047-15.492-4.774-22.069c-2.631-6.345-12.228-11.681-12.228-18.978s9.6-12.633,12.228-18.977c2.728-6.577-.183-17.113,4.774-22.07s15.492-2.046,22.069-4.774c6.344-2.631,11.681-12.228,18.977-12.228s12.632,9.6,18.978,12.228c6.577,2.728,17.112-.183,22.069,4.774s2.046,15.492,4.774,22.069C-1076.479,79.994-1066.882,85.329-1066.882,92.626Z" transform="translate(1182.98 -34.577)" fill="#f5f5f5"/>
      </g>
      <g id="Group_3228" data-name="Group 3228" transform="translate(878 303.976)">
        <g id="Group_3225" data-name="Group 3225" transform="translate(0 17.005)">
          <path id="Path_1976" data-name="Path 1976" d="M-1066.275,138.739s.1-12.415,9.12-17.673,10.736,5.487,10.736,5.487l-12.144,18.921Z" transform="translate(1140.571 -107.841)" fill="#ebebff"/>
          <g id="Group_1661" data-name="Group 1661">
            <path id="Path_773" data-name="Path 773" d="M-1044.22,126.3a60.205,60.205,0,0,0-13.675-19.347c-15.412,2.567-37.374,11.757-58.008,40.154a4.979,4.979,0,0,0-.035,5.8l4.052,5.734,24.961-19.183a2.058,2.058,0,0,1,2.893.319,2.058,2.058,0,0,1-.319,2.893l-.067.052c-.042.033-.089.066-.133.095l-26.415,17.123,4.053,5.735a4.981,4.981,0,0,0,5.477,1.9C-1067.781,157.612-1051.787,139.976-1044.22,126.3Zm-30.254,6.875a9.719,9.719,0,0,1,2.33-13.545,9.719,9.719,0,0,1,13.545,2.329,9.719,9.719,0,0,1-2.328,13.544A9.724,9.724,0,0,1-1074.473,133.179Z" transform="translate(1147.625 -106.075)" fill="#ff5757"/>
            <path id="Path_774" data-name="Path 774" d="M-1034.663,126.161a60.212,60.212,0,0,0-13.675-19.347c12.264-2.043,20.379.1,20.379.1S-1028.645,115.285-1034.663,126.161Z" transform="translate(1138.069 -105.932)" fill="#ff7c55"/>
            <g id="Group_1660" data-name="Group 1660" transform="translate(12.343 22.918)">
              <path id="Path_775" data-name="Path 775" d="M-1121.864,146.557a9.035,9.035,0,0,0-5.611.428l-9.688,4a.8.8,0,0,1-1.046-.431.8.8,0,0,1,.121-.817l11.193-13.645a9.652,9.652,0,0,1,9.131-3.384l6.546,1.151A135.454,135.454,0,0,0-1121.864,146.557Z" transform="translate(1138.27 -132.565)" fill="#8098ff"/>
              <path id="Path_776" data-name="Path 776" d="M-1088.923,189.559l-16.6,6a.8.8,0,0,1-1.025-.484.8.8,0,0,1,.159-.805l7.005-7.8a9.042,9.042,0,0,0,2.274-5.144,135.621,135.621,0,0,0,15.526-5.8l-1.1,6.558A9.651,9.651,0,0,1-1088.923,189.559Z" transform="translate(1133.852 -138.557)" fill="#8098ff"/>
            </g>
            <path id="Path_777" data-name="Path 777" d="M-1125.681,185.3l-26.933,7.724,16.271-22.812a11.243,11.243,0,0,1,8.682-4.708l2.593-.112a2.959,2.959,0,0,1,2.537,1.246l2.058,2.913-12.173,9.355,12.882-8.352,2.058,2.913a2.955,2.955,0,0,1,.33,2.811l-.972,2.407A11.241,11.241,0,0,1-1125.681,185.3Z" transform="translate(1152.614 -114.226)" fill="#ffc612"/>
          </g>
          <g id="Group_3223" data-name="Group 3223" transform="translate(70.51 10.914)">
            <path id="Path_1977" data-name="Path 1977" d="M-1060.094,139.776a10.592,10.592,0,0,1-10.58-10.58,10.592,10.592,0,0,1,10.58-10.58,10.593,10.593,0,0,1,10.58,10.58A10.592,10.592,0,0,1-1060.094,139.776Zm0-19.439a8.869,8.869,0,0,0-8.859,8.859,8.869,8.869,0,0,0,8.859,8.859,8.869,8.869,0,0,0,8.859-8.859A8.869,8.869,0,0,0-1060.094,120.337Z" transform="translate(1070.674 -118.616)" fill="#5b4aff"/>
          </g>
          <g id="Group_3224" data-name="Group 3224" transform="translate(80.66 21.064)">
            <path id="Path_1978" data-name="Path 1978" d="M-1058.449,137.644a.43.43,0,0,1-.43-.43.431.431,0,0,1,.43-.43,5.949,5.949,0,0,0,5.942-5.942.43.43,0,0,1,.43-.43.43.43,0,0,1,.43.43A6.81,6.81,0,0,1-1058.449,137.644Z" transform="translate(1058.879 -130.411)" fill="#6464ff"/>
          </g>
        </g>
        <g id="Group_3227" data-name="Group 3227" transform="translate(30.887 0)">
          <g id="Group_3226" data-name="Group 3226">
            <path id="Path_1979" data-name="Path 1979" d="M-1103.073,125.436c-1.2,1.04-1.9,1.453-2.132,1.2-4.5-4.968-6.748-7.45-11.247-12.418a.806.806,0,0,1,.118-1.287c1.614-1.439,2.435-2.14,4.106-3.5,2.342-1.912,4.417-2.795,6.1-2.726a5.4,5.4,0,0,1,4.247,2.581,7.11,7.11,0,0,1,1.222,4.726,6.189,6.189,0,0,1-1.031,2.838,12.078,12.078,0,0,1-2.63,2.878l2.94,3.575c.132.159-.033.477-.486.957S-1102.716,125.127-1103.073,125.436Zm-6.629-12.267,2.594,3.155c.114-.095.172-.141.288-.235a2.61,2.61,0,0,0,.957-1.5,1.977,1.977,0,0,0-.448-1.687,1.9,1.9,0,0,0-1.29-.861,2.537,2.537,0,0,0-1.62.736Z" transform="translate(1116.721 -89.033)" fill="#333"/>
            <path id="Path_1980" data-name="Path 1980" d="M-1086.841,113.18c.143.236-.5.774-1.885,1.666-1.405.9-2.164,1.269-2.309,1.055-3.773-5.588-5.66-8.382-9.435-13.97-.337-.5-.2-.963.433-1.379,1.947-1.289,2.936-1.911,4.94-3.106,4.6-2.742,7.832-2.314,9.441.831a6.244,6.244,0,0,1,.717,2.9,5.53,5.53,0,0,1-.724,2.738c2.275,1.24,3.387,1.885,5.562,3.225a3.609,3.609,0,0,1-.583,1.892,5.2,5.2,0,0,1-1.764,2.2,1.736,1.736,0,0,1-1.676.106c-1.975-1.484-2.982-2.207-5.036-3.618-.294.176-.441.264-.732.442Zm-6.844-11.241,2.016,3.312.121-.073c1.541-.935,1.988-1.966,1.308-3.147a1.693,1.693,0,0,0-1.159-.928,2.72,2.72,0,0,0-1.758.515Z" transform="translate(1114.479 -87.49)" fill="#333"/>
            <path id="Path_1981" data-name="Path 1981" d="M-1067.464,104.336a8.687,8.687,0,0,1-6.482.181,9.735,9.735,0,0,1-5.169-5.233c-1.333-2.735-1.573-5.193-.6-7.368A9.563,9.563,0,0,1-1074.188,87a9.455,9.455,0,0,1,7.323-.182c2.145.919,3.637,2.916,4.55,5.908s.8,5.451-.23,7.4A8.991,8.991,0,0,1-1067.464,104.336Zm-4.977-12.684a2.892,2.892,0,0,0-1.759,1.94,4.8,4.8,0,0,0,.379,3.305,5.1,5.1,0,0,0,2.024,2.569,2.755,2.755,0,0,0,2.486.178A2.786,2.786,0,0,0-1067.6,97.8a5.119,5.119,0,0,0-.265-3.29,4.705,4.705,0,0,0-1.972-2.664A2.921,2.921,0,0,0-1072.441,91.652Z" transform="translate(1111.642 -86.171)" fill="#333"/>
          </g>
        </g>
      </g>
    </g>
    <circle id="Ellipse_2224" data-name="Ellipse 2224" cx="3" cy="3" r="3" transform="translate(904 170)" fill="#ffa7a7"/>
    <circle id="Ellipse_2225" data-name="Ellipse 2225" cx="1.5" cy="1.5" r="1.5" transform="translate(1015 177)" fill="#ffb236"/>
    <path id="Path_1982" data-name="Path 1982" d="M-1821.3,2.089l-8.619.9a.45.45,0,0,0-.271.765l3.33,3.329-13.72,13.72a1.677,1.677,0,0,1-2.318,0l-4.26-4.259a3.142,3.142,0,0,0-4.436,0l-14.912,14.912a.749.749,0,0,0,0,1.059.746.746,0,0,0,.53.22.74.74,0,0,0,.528-.22l14.912-14.912a1.641,1.641,0,0,1,2.319,0l4.259,4.259a3.21,3.21,0,0,0,4.436,0l13.72-13.72,3.33,3.329a.449.449,0,0,0,.765-.271l.9-8.619A.45.45,0,0,0-1821.3,2.089Z" transform="translate(2780.803 134.729)" fill="#72dd2d"/>
    <path id="Polygon_20" data-name="Polygon 20" d="M2.757,3.1a2,2,0,0,1,3.486,0l1.08,1.921A2,2,0,0,1,5.58,8H3.42A2,2,0,0,1,1.677,5.019Z" transform="matrix(0.891, 0.454, -0.454, 0.891, 1006.981, 203.404)" fill="#86ccff"/>
    <g id="Group_3039" data-name="Group 3039" transform="translate(2721.889 -866.711) rotate(-31)">
      <path id="Path_1953" data-name="Path 1953" d="M-2040.844,33.74h-2.473v-.251a5.428,5.428,0,0,0-5.428-5.428,5.428,5.428,0,0,0-5.428,5.428v.251h-2.473a3.28,3.28,0,0,0-3.281,3.28,3.3,3.3,0,0,0,.04.513l1.78,11.289a3.281,3.281,0,0,0,3.241,2.77h12.243a3.28,3.28,0,0,0,3.241-2.77l1.78-11.288a3.281,3.281,0,0,0-2.728-3.753A3.291,3.291,0,0,0-2040.844,33.74Zm-12.137-.251a4.236,4.236,0,0,1,4.268-4.2,4.237,4.237,0,0,1,4.2,4.2v.251h-8.473Z" fill="url(#linear-gradient)"/>
      <g id="Group_3038" data-name="Group 3038" transform="translate(-2054.548 38.832)">
        <g id="Group_3034" data-name="Group 3034" transform="translate(4.398 0.117)">
          <g id="Group_3032" data-name="Group 3032">
            <path id="Path_1954" data-name="Path 1954" d="M-2017.9,72.2h-1.973a.419.419,0,0,0-.418.42.416.416,0,0,0,.054.205L-2019,75a.133.133,0,0,0,.182.05.131.131,0,0,0,.049-.05l.514-.906.721-1.27h0a.419.419,0,0,0-.158-.572A.421.421,0,0,0-2017.9,72.2Z" transform="translate(2020.292 -72.203)" fill="#fff"/>
          </g>
          <g id="Group_3033" data-name="Group 3033" transform="translate(0.001 4.68)">
            <path id="Path_1955" data-name="Path 1955" d="M-2017.534,93.421l-1.235-2.176a.134.134,0,0,0-.182-.05.132.132,0,0,0-.05.05l-.514.906-.721,1.27h0a.419.419,0,0,0,.159.571.42.42,0,0,0,.206.054h1.973a.42.42,0,0,0,.418-.421A.416.416,0,0,0-2017.534,93.421Z" transform="translate(2020.289 -91.179)" fill="#fff"/>
          </g>
        </g>
        <g id="Group_3037" data-name="Group 3037" transform="translate(0 0)">
          <g id="Group_3035" data-name="Group 3035" transform="translate(6.573)">
            <path id="Path_1956" data-name="Path 1956" d="M-2006.961,71.886a1.078,1.078,0,0,0-.567-.158h-1.01a1.427,1.427,0,0,0-1.24.722l-.1.183-1.089,1.918-.411.725a.7.7,0,0,0,0,.689l.939,1.653.352.621a.419.419,0,0,0,.572.156.423.423,0,0,0,.156-.156l2.78-4.882A1.09,1.09,0,0,0-2006.961,71.886Z" transform="translate(2011.472 -71.728)" fill="#fff"/>
          </g>
          <g id="Group_3036" data-name="Group 3036" transform="translate(0 0)">
            <path id="Path_1957" data-name="Path 1957" d="M-2033.178,75.276l-.411-.725-1.089-1.918-.1-.183a1.428,1.428,0,0,0-1.24-.722h-1.01a1.067,1.067,0,0,0-.159.012,1.06,1.06,0,0,0-.408.146,1.09,1.09,0,0,0-.379,1.471l2.469,4.338.311.545a.419.419,0,0,0,.572.156.421.421,0,0,0,.156-.156l.352-.62.938-1.653A.7.7,0,0,0-2033.178,75.276Z" transform="translate(2038.121 -71.728)" fill="#fff"/>
          </g>
        </g>
      </g>
    </g>
  </g>
</svg>
