<svg xmlns="http://www.w3.org/2000/svg" width="25.382" height="27.53" viewBox="0 0 25.382 27.53">
    <g data-name="Group 3263">
        <g data-name="Group 2858">
            <path data-name="Path 1771" d="m148.7 135.816-10.874.333a3.949 3.949 0 0 1-1.292-.167 4.538 4.538 0 0 0 1.557-.269l10.244-3.653a4.634 4.634 0 0 0 2.8-5.919l-4.335-12.166-.979-2.742 2.132-.063a4.158 4.158 0 0 1 4.286 4.023v.012l.013.352.483 15.973a4.156 4.156 0 0 1-4.023 4.285z" style="fill:#ff6845" transform="translate(-127.354 -108.622)"/>
        </g>
        <g data-name="Group 2859">
            <path data-name="Path 2021" d="m150.26 126.454-4.57-12.8-.851-2.4-.07-.189a3.708 3.708 0 0 0-3.1-2.433 3.856 3.856 0 0 0-1.626.189l-10.237 3.662a3.7 3.7 0 0 0-2.244 4.722l5.491 15.38a3.656 3.656 0 0 0 1.115 1.6 4.144 4.144 0 0 0 .624.422 3.7 3.7 0 0 0 2.982.215l10.243-3.656a3.691 3.691 0 0 0 2.238-4.722zm-7.18-8.591-3.322 7a1.7 1.7 0 0 1-1.538.971 1.65 1.65 0 0 1-.725-.164l-3.36-1.589a.945.945 0 0 1 .807-1.708l3.19 1.507 3.24-6.827a.945.945 0 0 1 1.708.807z" style="fill:#ff6845" transform="translate(-127.354 -108.622)"/>
        </g>
    </g>
</svg>
