<svg xmlns="http://www.w3.org/2000/svg" width="42.1" height="18.968" viewBox="0 0 42.1 18.968">
    <g data-name="Group 3282">
        <path data-name="Path 773" d="M1269.844 555.312a19.472 19.472 0 0 0-2-7.4c-4.967-.933-12.661-.582-22.086 5.752a1.611 1.611 0 0 0-.655 1.758l.594 2.192 9.715-3.053a.666.666 0 1 1 .4 1.27l-.051.014-9.928 2.266.594 2.193a1.611 1.611 0 0 0 1.452 1.187c11.328.714 18.147-2.866 21.965-6.179zm-9.955-1.274a3.144 3.144 0 1 1 3.857 2.213 3.144 3.144 0 0 1-3.857-2.213z" transform="translate(-1231.919 -547.529)" style="fill:#fff"/>
        <path data-name="Path 774" d="M1328.941 556.312a19.478 19.478 0 0 0-2-7.4 17.132 17.132 0 0 1 6.179 2.3 17.134 17.134 0 0 1-4.179 5.1z" transform="translate(-1291.016 -548.529)" style="fill:#fff"/>
        <g data-name="Group 1660">
            <path data-name="Path 775" d="M1231.978 553.072a2.924 2.924 0 0 0-1.752-.494l-3.388.138a.259.259 0 0 1-.143-.482l4.917-2.9a3.123 3.123 0 0 1 3.15-.013l1.861 1.077a43.851 43.851 0 0 0-4.645 2.674z" transform="translate(-1218.586 -548.518)" style="fill:#fff"/>
            <path data-name="Path 776" d="m1246.881 606.726-5.709-.023a.259.259 0 0 1-.12-.488l2.995-1.59a2.925 2.925 0 0 0 1.263-1.31 43.868 43.868 0 0 0 5.362-.036l-1.063 1.87a3.122 3.122 0 0 1-2.728 1.577z" transform="translate(-1228.939 -587.759)" style="fill:#fff"/>
        </g>
        <path data-name="Path 777" d="m1206.94 583.843-9.041-.647 7.479-5.121a3.638 3.638 0 0 1 3.161-.465l.8.254a.957.957 0 0 1 .632.661l.3 1.114-4.738 1.489 4.842-1.105.3 1.114a.957.957 0 0 1-.212.889l-.562.623a3.638 3.638 0 0 1-2.961 1.194z" transform="translate(-1197.899 -569.113)" style="fill:#fff"/>
    </g>
</svg>
