<svg data-name="Group 3248" xmlns="http://www.w3.org/2000/svg" xmlns:xlink="http://www.w3.org/1999/xlink" width="35.235" height="27.534" viewBox="0 0 35.235 27.534">
    <defs>
        <linearGradient id="rk5ou3v21a" x1=".48" y1="5.722" x2=".597" y2="7.264" gradientUnits="objectBoundingBox">
            <stop offset="0" stop-color="#f15895"/>
            <stop offset="1" stop-color="#9645a1"/>
        </linearGradient>
        <linearGradient id="yc5jm8s2mb" x1="-.147" y1=".306" x2="1" y2=".5" xlink:href="#rk5ou3v21a"/>
        <linearGradient id="nf5kkrk4ac" x1="1" y1="1" x2=".11" y2=".11" xlink:href="#rk5ou3v21a"/>
        <linearGradient id="lu8ata1i6d" x1=".139" y1="4.091" x2="1.058" y2="5.041" xlink:href="#rk5ou3v21a"/>
        <linearGradient id="w6x674oure" x1="1.091" y1="11.204" x2="-.167" y2="10.122" xlink:href="#rk5ou3v21a"/>
        <linearGradient id="ag4zurwktf" x1="1.059" y1="2.263" x2="-.224" y2="2.322" xlink:href="#rk5ou3v21a"/>
        <linearGradient id="h8ea7to8jg" x1="1.034" y1=".677" x2="0" y2="0" xlink:href="#rk5ou3v21a"/>
    </defs>
    <path data-name="Path 2001" d="m109.126 72.573-3.76 1.637-9.1-4 9.1-4 3.335 1.456z" transform="translate(-88.264 -63.84)" style="fill:url(#rk5ou3v21a)"/>
    <path data-name="Path 2002" d="M113.458 73.65v3.457l-9.218 4v-7.154l4.124-1.819z" transform="translate(-86.532 -62.551)" style="fill:url(#yc5jm8s2mb);fill-rule:evenodd"/>
    <path data-name="Path 2003" d="M104.9 74.354v7.156l-9.279-4v-7.22z" transform="translate(-88.405 -62.952)" style="fill:url(#nf5kkrk4ac);fill-rule:evenodd"/>
    <g data-name="Group 3242" style="opacity:.1">
        <g data-name="Group 3241">
            <path data-name="Path 2004" d="M25.471 12.246a5.822 5.822 0 1 1 5.821-5.823 5.83 5.83 0 0 1-5.821 5.823zm0-10.431a4.609 4.609 0 1 0 4.609 4.609 4.614 4.614 0 0 0-4.609-4.605z"/>
        </g>
    </g>
    <g data-name="Group 3244">
        <g data-name="Group 3243">
            <path data-name="Path 2005" d="M111.656 75.907a5.823 5.823 0 1 1 5.821-5.823 5.824 5.824 0 0 1-5.821 5.823zm0-10.431a4.609 4.609 0 1 0 4.609 4.609 4.687 4.687 0 0 0-4.609-4.609z" transform="translate(-86.185 -64.262)" style="fill:url(#lu8ata1i6d)"/>
        </g>
    </g>
    <g data-name="Group 3245">
        <path data-name="Path 2006" d="m110.2 71.8-2.244-2.244a.6.6 0 0 1 .848-.85l1.4 1.4 2.668-2.668a.6.6 0 0 1 .848.848z" transform="translate(-85.763 -63.612)" style="fill:url(#w6x674oure)"/>
    </g>
    <path data-name="Path 2007" d="M106.147 87.206H93.108a2.692 2.692 0 0 1-2.668-2.668v-.121a2.692 2.692 0 0 1 2.668-2.668h13.039a2.691 2.691 0 0 1 2.668 2.668v.121a2.691 2.691 0 0 1-2.668 2.668z" transform="translate(-89.531 -60.461)" style="fill:url(#ag4zurwktf);fill-rule:evenodd"/>
    <path data-name="Path 2008" d="m90.724 82.1.122-.121a3.434 3.434 0 0 1 2.486-1.031h28.018a3.585 3.585 0 0 1 3.579 3.578v.122a3.58 3.58 0 0 1-1.031 2.486l-.061.061a3.645 3.645 0 0 1-2.487.97H93.271a3.624 3.624 0 0 1-3.578-3.578 3.436 3.436 0 0 1 1.031-2.487zm.789 2.608a1.76 1.76 0 0 0 1.758 1.759h28.018a1.76 1.76 0 0 0 1.759-1.759v-.121a1.76 1.76 0 0 0-1.759-1.759H93.271a1.76 1.76 0 0 0-1.758 1.759z" transform="translate(-89.693 -60.635)" style="fill:url(#h8ea7to8jg)"/>
    <g data-name="Group 3247">
        <g data-name="Group 3246">
            <path data-name="Path 2009" d="M103.692 71.885z" transform="translate(-86.651 -62.605)" style="fill:#fff"/>
        </g>
    </g>
</svg>
