<svg xmlns="http://www.w3.org/2000/svg" width="30.383" height="27.53" viewBox="0 0 30.383 27.53">
    <path data-name="Path 2020" d="M37.624 1.6a8.7 8.7 0 0 0-12.324.024l-.29.289-.3-.3a8.729 8.729 0 0 0-12.345 12.345l.3.3L25.01 26.582l12.636-12.635A8.72 8.72 0 0 0 37.624 1.6zm-4.788 6.089-8.2 8.179a1.611 1.611 0 0 1-2.28 0l-4.519-4.526a1.323 1.323 0 0 1 0-1.9 1.361 1.361 0 0 1 1.9 0l3.361 3.38a.56.56 0 0 0 .793 0l7.042-7.032a1.344 1.344 0 0 1 1.9 1.9z" transform="translate(-9.813 .948)" style="fill:#ff6845"/>
</svg>
