<svg xmlns="http://www.w3.org/2000/svg" width="31.736" height="27.53" viewBox="0 0 31.736 27.53">
    <path data-name="Path 2016" d="M76.472 62.781H72.84a1.221 1.221 0 0 1-.71-.221.631.631 0 0 0-.825.078l-.582.633a.647.647 0 0 0 .056.945 3.383 3.383 0 0 0 2.054.7h3.632a1.263 1.263 0 0 1 1.264 1.265v4.676a1.99 1.99 0 0 1-1.989 1.99H52.246a1.991 1.991 0 0 1-1.99-1.99V56.243a1.991 1.991 0 0 1 1.99-1.99h8.066a1.268 1.268 0 0 1 1.265 1.265v.668a3.384 3.384 0 0 0 1.435 2.764 1.564 1.564 0 0 0 1.962-.128l.4-.362a.582.582 0 0 0-.391-1.009 1.268 1.268 0 0 1-1.265-1.265v-.668a3.4 3.4 0 0 0-3.4-3.4h-8.065a4.124 4.124 0 0 0-4.121 4.122v14.61a4.124 4.124 0 0 0 4.121 4.122h23.494a4.124 4.124 0 0 0 4.121-4.122v-4.673a3.4 3.4 0 0 0-3.396-3.396zM53.6 56.733a1.187 1.187 0 1 1-1.186-1.187 1.189 1.189 0 0 1 1.186 1.187zm3.553 0a1.186 1.186 0 1 1-1.186-1.187 1.188 1.188 0 0 1 1.182 1.187zm3.554 0a1.187 1.187 0 1 1-1.187-1.187 1.189 1.189 0 0 1 1.18 1.187zm6.076 7.192L65 62.141a1 1 0 0 1 .028-1.443l8.336-7.653a1.778 1.778 0 0 1 2.452.05 1.763 1.763 0 0 1 .049 2.451l-7.653 8.336a.968.968 0 0 1-1.433.043zm-1.7 4.356a5.585 5.585 0 0 1-6.673.6 5.09 5.09 0 0 1-.924-.768c-.12-.128-.476-.433-.44-.625.057-.284.874-.242 1.087-.291a3.953 3.953 0 0 0 1.151-.455 4.806 4.806 0 0 0 1.67-1.692c.555-.959.754-2.6 2.125-2.736a1.761 1.761 0 0 1 1.151.327 3.767 3.767 0 0 1 .85 5.64zm3.241-13.843h-2.491a1.128 1.128 0 0 1-1.129-1.13v-2.487a1.127 1.127 0 0 1 1.129-1.13h2.488a1.128 1.128 0 0 1 1.13 1.13v2.487a1.124 1.124 0 0 1-1.13 1.13zm5.28-3.745H71.9a.777.777 0 0 1-.774-.775v-1.7a.776.776 0 0 1 .774-.775h1.7a.776.776 0 0 1 .774.775v1.7a.772.772 0 0 1-.774.775z" transform="translate(-48.132 -47.445)" style="fill:#ff6845"/>
</svg>
